<mxfile host="app.diagrams.net" agent="Mozilla/5.0 (Windows NT 10.0; Win64; x64) AppleWebKit/537.36 (KHTML, like Gecko) Chrome/138.0.0.0 Safari/537.36 OPR/122.0.0.0" version="28.2.5">
  <diagram name="Страница — 1" id="Nm4EEwZC-U5XFXRxP-IO">
    <mxGraphModel dx="2470" dy="2432" grid="1" gridSize="10" guides="1" tooltips="1" connect="1" arrows="1" fold="1" page="1" pageScale="1" pageWidth="827" pageHeight="1169" math="0" shadow="0">
      <root>
        <mxCell id="0" />
        <mxCell id="1" parent="0" />
        <mxCell id="R6hqBm6xqQ9UbIMBV1jL-1" value="Начало" style="ellipse;whiteSpace=wrap;html=1;" vertex="1" parent="1">
          <mxGeometry x="354" y="-400" width="120" height="80" as="geometry" />
        </mxCell>
        <mxCell id="R6hqBm6xqQ9UbIMBV1jL-7" value="x &amp;gt; y и x &amp;lt; z" style="rhombus;whiteSpace=wrap;html=1;" vertex="1" parent="1">
          <mxGeometry x="346" y="320" width="136" height="80" as="geometry" />
        </mxCell>
        <mxCell id="R6hqBm6xqQ9UbIMBV1jL-8" value="" style="endArrow=classic;html=1;rounded=0;entryX=0.5;entryY=0;entryDx=0;entryDy=0;exitX=0.5;exitY=1;exitDx=0;exitDy=0;" edge="1" parent="1" source="R6hqBm6xqQ9UbIMBV1jL-39" target="R6hqBm6xqQ9UbIMBV1jL-7">
          <mxGeometry width="50" height="50" relative="1" as="geometry">
            <mxPoint x="414" y="280" as="sourcePoint" />
            <mxPoint x="220" y="290" as="targetPoint" />
          </mxGeometry>
        </mxCell>
        <mxCell id="R6hqBm6xqQ9UbIMBV1jL-10" value="Вывод числа x" style="rounded=0;whiteSpace=wrap;html=1;" vertex="1" parent="1">
          <mxGeometry x="707" y="330" width="120" height="60" as="geometry" />
        </mxCell>
        <mxCell id="R6hqBm6xqQ9UbIMBV1jL-11" value="" style="endArrow=classic;html=1;rounded=0;exitX=0.5;exitY=1;exitDx=0;exitDy=0;entryX=0.5;entryY=0;entryDx=0;entryDy=0;" edge="1" parent="1" source="R6hqBm6xqQ9UbIMBV1jL-7" target="R6hqBm6xqQ9UbIMBV1jL-12">
          <mxGeometry width="50" height="50" relative="1" as="geometry">
            <mxPoint x="250" y="450" as="sourcePoint" />
            <mxPoint x="414" y="440" as="targetPoint" />
          </mxGeometry>
        </mxCell>
        <mxCell id="R6hqBm6xqQ9UbIMBV1jL-12" value="x &amp;lt; y и x &amp;gt; z" style="rhombus;whiteSpace=wrap;html=1;" vertex="1" parent="1">
          <mxGeometry x="346" y="440" width="136" height="80" as="geometry" />
        </mxCell>
        <mxCell id="R6hqBm6xqQ9UbIMBV1jL-14" value="Вывод числа x" style="rounded=0;whiteSpace=wrap;html=1;" vertex="1" parent="1">
          <mxGeometry x="707" y="450" width="120" height="60" as="geometry" />
        </mxCell>
        <mxCell id="R6hqBm6xqQ9UbIMBV1jL-16" value="y &amp;gt; x и y &amp;lt; z" style="rhombus;whiteSpace=wrap;html=1;" vertex="1" parent="1">
          <mxGeometry x="346" y="560" width="136" height="80" as="geometry" />
        </mxCell>
        <mxCell id="R6hqBm6xqQ9UbIMBV1jL-17" value="" style="endArrow=classic;html=1;rounded=0;entryX=0.5;entryY=0;entryDx=0;entryDy=0;exitX=0.5;exitY=1;exitDx=0;exitDy=0;" edge="1" parent="1" source="R6hqBm6xqQ9UbIMBV1jL-12" target="R6hqBm6xqQ9UbIMBV1jL-16">
          <mxGeometry width="50" height="50" relative="1" as="geometry">
            <mxPoint x="160" y="540" as="sourcePoint" />
            <mxPoint x="210" y="490" as="targetPoint" />
          </mxGeometry>
        </mxCell>
        <mxCell id="R6hqBm6xqQ9UbIMBV1jL-18" value="y &amp;lt; x и y &amp;gt; z" style="rhombus;whiteSpace=wrap;html=1;" vertex="1" parent="1">
          <mxGeometry x="346" y="680" width="136" height="80" as="geometry" />
        </mxCell>
        <mxCell id="R6hqBm6xqQ9UbIMBV1jL-19" value="" style="endArrow=classic;html=1;rounded=0;entryX=0.5;entryY=0;entryDx=0;entryDy=0;exitX=0.5;exitY=1;exitDx=0;exitDy=0;" edge="1" parent="1" source="R6hqBm6xqQ9UbIMBV1jL-16" target="R6hqBm6xqQ9UbIMBV1jL-18">
          <mxGeometry width="50" height="50" relative="1" as="geometry">
            <mxPoint x="270" y="680" as="sourcePoint" />
            <mxPoint x="320" y="630" as="targetPoint" />
          </mxGeometry>
        </mxCell>
        <mxCell id="R6hqBm6xqQ9UbIMBV1jL-20" value="z &amp;gt; y и z &amp;lt; x" style="rhombus;whiteSpace=wrap;html=1;" vertex="1" parent="1">
          <mxGeometry x="346" y="800" width="136" height="80" as="geometry" />
        </mxCell>
        <mxCell id="R6hqBm6xqQ9UbIMBV1jL-21" value="z &amp;lt; y и z &amp;gt; x" style="rhombus;whiteSpace=wrap;html=1;" vertex="1" parent="1">
          <mxGeometry x="346" y="920" width="136" height="80" as="geometry" />
        </mxCell>
        <mxCell id="R6hqBm6xqQ9UbIMBV1jL-22" value="" style="endArrow=classic;html=1;rounded=0;entryX=0.5;entryY=0;entryDx=0;entryDy=0;exitX=0.5;exitY=1;exitDx=0;exitDy=0;" edge="1" parent="1" source="R6hqBm6xqQ9UbIMBV1jL-18" target="R6hqBm6xqQ9UbIMBV1jL-20">
          <mxGeometry width="50" height="50" relative="1" as="geometry">
            <mxPoint x="160" y="850" as="sourcePoint" />
            <mxPoint x="210" y="800" as="targetPoint" />
          </mxGeometry>
        </mxCell>
        <mxCell id="R6hqBm6xqQ9UbIMBV1jL-23" value="" style="endArrow=classic;html=1;rounded=0;entryX=0.5;entryY=0;entryDx=0;entryDy=0;exitX=0.5;exitY=1;exitDx=0;exitDy=0;" edge="1" parent="1" source="R6hqBm6xqQ9UbIMBV1jL-20" target="R6hqBm6xqQ9UbIMBV1jL-21">
          <mxGeometry width="50" height="50" relative="1" as="geometry">
            <mxPoint x="190" y="890" as="sourcePoint" />
            <mxPoint x="240" y="840" as="targetPoint" />
          </mxGeometry>
        </mxCell>
        <mxCell id="R6hqBm6xqQ9UbIMBV1jL-24" value="Конец" style="ellipse;whiteSpace=wrap;html=1;" vertex="1" parent="1">
          <mxGeometry x="354" y="1040" width="120" height="80" as="geometry" />
        </mxCell>
        <mxCell id="R6hqBm6xqQ9UbIMBV1jL-30" value="" style="endArrow=classic;html=1;rounded=0;exitX=0.5;exitY=1;exitDx=0;exitDy=0;entryX=0.5;entryY=0;entryDx=0;entryDy=0;" edge="1" parent="1" source="R6hqBm6xqQ9UbIMBV1jL-21" target="R6hqBm6xqQ9UbIMBV1jL-24">
          <mxGeometry width="50" height="50" relative="1" as="geometry">
            <mxPoint x="670" y="1050" as="sourcePoint" />
            <mxPoint x="720" y="1000" as="targetPoint" />
          </mxGeometry>
        </mxCell>
        <mxCell id="R6hqBm6xqQ9UbIMBV1jL-31" value="Вывод числа y" style="rounded=0;whiteSpace=wrap;html=1;" vertex="1" parent="1">
          <mxGeometry x="707" y="570" width="120" height="60" as="geometry" />
        </mxCell>
        <mxCell id="R6hqBm6xqQ9UbIMBV1jL-32" value="Вывод числа y" style="rounded=0;whiteSpace=wrap;html=1;" vertex="1" parent="1">
          <mxGeometry x="707" y="690" width="120" height="60" as="geometry" />
        </mxCell>
        <mxCell id="R6hqBm6xqQ9UbIMBV1jL-33" value="Вывод числа z" style="rounded=0;whiteSpace=wrap;html=1;" vertex="1" parent="1">
          <mxGeometry x="707" y="810" width="120" height="60" as="geometry" />
        </mxCell>
        <mxCell id="R6hqBm6xqQ9UbIMBV1jL-34" value="Вывод числа z" style="rounded=0;whiteSpace=wrap;html=1;" vertex="1" parent="1">
          <mxGeometry x="707" y="930" width="120" height="60" as="geometry" />
        </mxCell>
        <mxCell id="R6hqBm6xqQ9UbIMBV1jL-39" value="Ввод числа z" style="rounded=0;whiteSpace=wrap;html=1;" vertex="1" parent="1">
          <mxGeometry x="354" y="220" width="120" height="60" as="geometry" />
        </mxCell>
        <mxCell id="R6hqBm6xqQ9UbIMBV1jL-40" value="&lt;div&gt;&lt;span style=&quot;background-color: transparent; color: light-dark(rgb(0, 0, 0), rgb(255, 255, 255));&quot;&gt;&quot;Введите третье число&quot;&lt;/span&gt;&lt;/div&gt;" style="shape=parallelogram;perimeter=parallelogramPerimeter;whiteSpace=wrap;html=1;fixedSize=1;fontSize=8;align=center;" vertex="1" parent="1">
          <mxGeometry x="354" y="120" width="120" height="60" as="geometry" />
        </mxCell>
        <mxCell id="R6hqBm6xqQ9UbIMBV1jL-41" value="" style="endArrow=classic;html=1;rounded=0;entryX=0.5;entryY=0;entryDx=0;entryDy=0;exitX=0.5;exitY=1;exitDx=0;exitDy=0;" edge="1" parent="1" source="R6hqBm6xqQ9UbIMBV1jL-40" target="R6hqBm6xqQ9UbIMBV1jL-39">
          <mxGeometry width="50" height="50" relative="1" as="geometry">
            <mxPoint x="220" y="260" as="sourcePoint" />
            <mxPoint x="270" y="210" as="targetPoint" />
          </mxGeometry>
        </mxCell>
        <mxCell id="R6hqBm6xqQ9UbIMBV1jL-42" value="" style="endArrow=classic;html=1;rounded=0;entryX=0.5;entryY=0;entryDx=0;entryDy=0;exitX=0.5;exitY=1;exitDx=0;exitDy=0;" edge="1" parent="1" source="R6hqBm6xqQ9UbIMBV1jL-43" target="R6hqBm6xqQ9UbIMBV1jL-40">
          <mxGeometry width="50" height="50" relative="1" as="geometry">
            <mxPoint x="414" y="70" as="sourcePoint" />
            <mxPoint x="440" y="-10" as="targetPoint" />
          </mxGeometry>
        </mxCell>
        <mxCell id="R6hqBm6xqQ9UbIMBV1jL-43" value="Ввод числа y" style="rounded=0;whiteSpace=wrap;html=1;" vertex="1" parent="1">
          <mxGeometry x="354" y="20" width="120" height="60" as="geometry" />
        </mxCell>
        <mxCell id="R6hqBm6xqQ9UbIMBV1jL-44" value="&quot;Введите второе число&quot;" style="shape=parallelogram;perimeter=parallelogramPerimeter;whiteSpace=wrap;html=1;fixedSize=1;fontSize=8;" vertex="1" parent="1">
          <mxGeometry x="354" y="-80" width="120" height="60" as="geometry" />
        </mxCell>
        <mxCell id="R6hqBm6xqQ9UbIMBV1jL-45" value="" style="endArrow=classic;html=1;rounded=0;entryX=0.5;entryY=0;entryDx=0;entryDy=0;exitX=0.5;exitY=1;exitDx=0;exitDy=0;" edge="1" parent="1" source="R6hqBm6xqQ9UbIMBV1jL-44" target="R6hqBm6xqQ9UbIMBV1jL-43">
          <mxGeometry width="50" height="50" relative="1" as="geometry">
            <mxPoint x="414" y="-40" as="sourcePoint" />
            <mxPoint x="320" y="-80" as="targetPoint" />
          </mxGeometry>
        </mxCell>
        <mxCell id="R6hqBm6xqQ9UbIMBV1jL-46" value="Ввод числа x" style="rounded=0;whiteSpace=wrap;html=1;" vertex="1" parent="1">
          <mxGeometry x="354" y="-180" width="120" height="60" as="geometry" />
        </mxCell>
        <mxCell id="R6hqBm6xqQ9UbIMBV1jL-47" value="" style="endArrow=classic;html=1;rounded=0;entryX=0.5;entryY=0;entryDx=0;entryDy=0;exitX=0.5;exitY=1;exitDx=0;exitDy=0;" edge="1" parent="1" source="R6hqBm6xqQ9UbIMBV1jL-46" target="R6hqBm6xqQ9UbIMBV1jL-44">
          <mxGeometry width="50" height="50" relative="1" as="geometry">
            <mxPoint x="240" y="-80" as="sourcePoint" />
            <mxPoint x="290" y="-130" as="targetPoint" />
          </mxGeometry>
        </mxCell>
        <mxCell id="R6hqBm6xqQ9UbIMBV1jL-48" value="&lt;font&gt;&quot;Введите первое число&quot;&lt;/font&gt;" style="shape=parallelogram;perimeter=parallelogramPerimeter;whiteSpace=wrap;html=1;fixedSize=1;fontSize=8;" vertex="1" parent="1">
          <mxGeometry x="354" y="-280" width="120" height="60" as="geometry" />
        </mxCell>
        <mxCell id="R6hqBm6xqQ9UbIMBV1jL-49" value="" style="endArrow=classic;html=1;rounded=0;entryX=0.5;entryY=0;entryDx=0;entryDy=0;exitX=0.5;exitY=1;exitDx=0;exitDy=0;" edge="1" parent="1" source="R6hqBm6xqQ9UbIMBV1jL-48" target="R6hqBm6xqQ9UbIMBV1jL-46">
          <mxGeometry width="50" height="50" relative="1" as="geometry">
            <mxPoint x="200" y="-190" as="sourcePoint" />
            <mxPoint x="250" y="-240" as="targetPoint" />
          </mxGeometry>
        </mxCell>
        <mxCell id="R6hqBm6xqQ9UbIMBV1jL-50" value="" style="endArrow=classic;html=1;rounded=0;entryX=0.5;entryY=0;entryDx=0;entryDy=0;exitX=0.5;exitY=1;exitDx=0;exitDy=0;" edge="1" parent="1" source="R6hqBm6xqQ9UbIMBV1jL-1" target="R6hqBm6xqQ9UbIMBV1jL-48">
          <mxGeometry width="50" height="50" relative="1" as="geometry">
            <mxPoint x="250" y="-200" as="sourcePoint" />
            <mxPoint x="300" y="-250" as="targetPoint" />
          </mxGeometry>
        </mxCell>
        <mxCell id="R6hqBm6xqQ9UbIMBV1jL-51" value="&quot;Среднее по значению &quot;" style="shape=parallelogram;perimeter=parallelogramPerimeter;whiteSpace=wrap;html=1;fixedSize=1;fontSize=8;" vertex="1" parent="1">
          <mxGeometry x="550" y="930" width="120" height="60" as="geometry" />
        </mxCell>
        <mxCell id="R6hqBm6xqQ9UbIMBV1jL-52" value="&quot;Среднее по значению &quot;" style="shape=parallelogram;perimeter=parallelogramPerimeter;whiteSpace=wrap;html=1;fixedSize=1;fontSize=8;" vertex="1" parent="1">
          <mxGeometry x="550" y="330" width="120" height="60" as="geometry" />
        </mxCell>
        <mxCell id="R6hqBm6xqQ9UbIMBV1jL-53" value="&quot;Среднее по значению &quot;" style="shape=parallelogram;perimeter=parallelogramPerimeter;whiteSpace=wrap;html=1;fixedSize=1;fontSize=8;" vertex="1" parent="1">
          <mxGeometry x="550" y="450" width="120" height="60" as="geometry" />
        </mxCell>
        <mxCell id="R6hqBm6xqQ9UbIMBV1jL-54" value="&quot;Среднее по значению &quot;" style="shape=parallelogram;perimeter=parallelogramPerimeter;whiteSpace=wrap;html=1;fixedSize=1;fontSize=8;" vertex="1" parent="1">
          <mxGeometry x="550" y="810" width="120" height="60" as="geometry" />
        </mxCell>
        <mxCell id="R6hqBm6xqQ9UbIMBV1jL-55" value="&quot;Среднее по значению &quot;" style="shape=parallelogram;perimeter=parallelogramPerimeter;whiteSpace=wrap;html=1;fixedSize=1;fontSize=8;" vertex="1" parent="1">
          <mxGeometry x="550" y="690" width="120" height="60" as="geometry" />
        </mxCell>
        <mxCell id="R6hqBm6xqQ9UbIMBV1jL-56" value="&quot;Среднее по значению &quot;" style="shape=parallelogram;perimeter=parallelogramPerimeter;whiteSpace=wrap;html=1;fixedSize=1;fontSize=8;" vertex="1" parent="1">
          <mxGeometry x="550" y="570" width="120" height="60" as="geometry" />
        </mxCell>
        <mxCell id="R6hqBm6xqQ9UbIMBV1jL-57" value="" style="endArrow=classic;html=1;rounded=0;entryX=0;entryY=0.5;entryDx=0;entryDy=0;exitX=1;exitY=0.5;exitDx=0;exitDy=0;" edge="1" parent="1" source="R6hqBm6xqQ9UbIMBV1jL-56" target="R6hqBm6xqQ9UbIMBV1jL-31">
          <mxGeometry width="50" height="50" relative="1" as="geometry">
            <mxPoint x="280" y="710" as="sourcePoint" />
            <mxPoint x="330" y="660" as="targetPoint" />
          </mxGeometry>
        </mxCell>
        <mxCell id="R6hqBm6xqQ9UbIMBV1jL-58" value="" style="endArrow=classic;html=1;rounded=0;entryX=0;entryY=0.5;entryDx=0;entryDy=0;exitX=1;exitY=0.5;exitDx=0;exitDy=0;" edge="1" parent="1" source="R6hqBm6xqQ9UbIMBV1jL-16" target="R6hqBm6xqQ9UbIMBV1jL-56">
          <mxGeometry width="50" height="50" relative="1" as="geometry">
            <mxPoint x="220" y="660" as="sourcePoint" />
            <mxPoint x="270" y="610" as="targetPoint" />
          </mxGeometry>
        </mxCell>
        <mxCell id="R6hqBm6xqQ9UbIMBV1jL-59" value="" style="endArrow=classic;html=1;rounded=0;entryX=0;entryY=0.5;entryDx=0;entryDy=0;exitX=1;exitY=0.5;exitDx=0;exitDy=0;" edge="1" parent="1" source="R6hqBm6xqQ9UbIMBV1jL-12" target="R6hqBm6xqQ9UbIMBV1jL-53">
          <mxGeometry width="50" height="50" relative="1" as="geometry">
            <mxPoint x="270" y="510" as="sourcePoint" />
            <mxPoint x="320" y="460" as="targetPoint" />
          </mxGeometry>
        </mxCell>
        <mxCell id="R6hqBm6xqQ9UbIMBV1jL-60" value="" style="endArrow=classic;html=1;rounded=0;entryX=0;entryY=0.5;entryDx=0;entryDy=0;exitX=1;exitY=0.5;exitDx=0;exitDy=0;" edge="1" parent="1" source="R6hqBm6xqQ9UbIMBV1jL-53" target="R6hqBm6xqQ9UbIMBV1jL-14">
          <mxGeometry width="50" height="50" relative="1" as="geometry">
            <mxPoint x="290" y="590" as="sourcePoint" />
            <mxPoint x="340" y="540" as="targetPoint" />
          </mxGeometry>
        </mxCell>
        <mxCell id="R6hqBm6xqQ9UbIMBV1jL-61" value="" style="endArrow=classic;html=1;rounded=0;entryX=0;entryY=0.5;entryDx=0;entryDy=0;exitX=1;exitY=0.5;exitDx=0;exitDy=0;" edge="1" parent="1" source="R6hqBm6xqQ9UbIMBV1jL-7" target="R6hqBm6xqQ9UbIMBV1jL-52">
          <mxGeometry width="50" height="50" relative="1" as="geometry">
            <mxPoint x="220" y="430" as="sourcePoint" />
            <mxPoint x="270" y="380" as="targetPoint" />
          </mxGeometry>
        </mxCell>
        <mxCell id="R6hqBm6xqQ9UbIMBV1jL-62" value="" style="endArrow=classic;html=1;rounded=0;entryX=0;entryY=0.5;entryDx=0;entryDy=0;exitX=1;exitY=0.5;exitDx=0;exitDy=0;" edge="1" parent="1" source="R6hqBm6xqQ9UbIMBV1jL-52" target="R6hqBm6xqQ9UbIMBV1jL-10">
          <mxGeometry width="50" height="50" relative="1" as="geometry">
            <mxPoint x="210" y="480" as="sourcePoint" />
            <mxPoint x="260" y="430" as="targetPoint" />
          </mxGeometry>
        </mxCell>
        <mxCell id="R6hqBm6xqQ9UbIMBV1jL-63" value="" style="endArrow=classic;html=1;rounded=0;entryX=0;entryY=0.5;entryDx=0;entryDy=0;exitX=1;exitY=0.5;exitDx=0;exitDy=0;" edge="1" parent="1" source="R6hqBm6xqQ9UbIMBV1jL-18" target="R6hqBm6xqQ9UbIMBV1jL-55">
          <mxGeometry width="50" height="50" relative="1" as="geometry">
            <mxPoint x="210" y="760" as="sourcePoint" />
            <mxPoint x="260" y="710" as="targetPoint" />
          </mxGeometry>
        </mxCell>
        <mxCell id="R6hqBm6xqQ9UbIMBV1jL-64" value="" style="endArrow=classic;html=1;rounded=0;entryX=0;entryY=0.5;entryDx=0;entryDy=0;exitX=1;exitY=0.5;exitDx=0;exitDy=0;" edge="1" parent="1" source="R6hqBm6xqQ9UbIMBV1jL-55" target="R6hqBm6xqQ9UbIMBV1jL-32">
          <mxGeometry width="50" height="50" relative="1" as="geometry">
            <mxPoint x="230" y="750" as="sourcePoint" />
            <mxPoint x="280" y="700" as="targetPoint" />
          </mxGeometry>
        </mxCell>
        <mxCell id="R6hqBm6xqQ9UbIMBV1jL-65" value="" style="endArrow=classic;html=1;rounded=0;entryX=0;entryY=0.5;entryDx=0;entryDy=0;exitX=1;exitY=0.5;exitDx=0;exitDy=0;" edge="1" parent="1" source="R6hqBm6xqQ9UbIMBV1jL-20" target="R6hqBm6xqQ9UbIMBV1jL-54">
          <mxGeometry width="50" height="50" relative="1" as="geometry">
            <mxPoint x="220" y="830" as="sourcePoint" />
            <mxPoint x="270" y="780" as="targetPoint" />
          </mxGeometry>
        </mxCell>
        <mxCell id="R6hqBm6xqQ9UbIMBV1jL-66" value="" style="endArrow=classic;html=1;rounded=0;entryX=0;entryY=0.5;entryDx=0;entryDy=0;exitX=1;exitY=0.5;exitDx=0;exitDy=0;" edge="1" parent="1" source="R6hqBm6xqQ9UbIMBV1jL-54" target="R6hqBm6xqQ9UbIMBV1jL-33">
          <mxGeometry width="50" height="50" relative="1" as="geometry">
            <mxPoint x="210" y="860" as="sourcePoint" />
            <mxPoint x="260" y="810" as="targetPoint" />
          </mxGeometry>
        </mxCell>
        <mxCell id="R6hqBm6xqQ9UbIMBV1jL-67" value="" style="endArrow=classic;html=1;rounded=0;entryX=0;entryY=0.5;entryDx=0;entryDy=0;exitX=1;exitY=0.5;exitDx=0;exitDy=0;" edge="1" parent="1" source="R6hqBm6xqQ9UbIMBV1jL-51" target="R6hqBm6xqQ9UbIMBV1jL-34">
          <mxGeometry width="50" height="50" relative="1" as="geometry">
            <mxPoint x="230" y="1020" as="sourcePoint" />
            <mxPoint x="280" y="970" as="targetPoint" />
          </mxGeometry>
        </mxCell>
        <mxCell id="R6hqBm6xqQ9UbIMBV1jL-68" value="" style="endArrow=classic;html=1;rounded=0;entryX=0;entryY=0.5;entryDx=0;entryDy=0;exitX=1;exitY=0.5;exitDx=0;exitDy=0;" edge="1" parent="1" source="R6hqBm6xqQ9UbIMBV1jL-21" target="R6hqBm6xqQ9UbIMBV1jL-51">
          <mxGeometry width="50" height="50" relative="1" as="geometry">
            <mxPoint x="240" y="1000" as="sourcePoint" />
            <mxPoint x="290" y="950" as="targetPoint" />
          </mxGeometry>
        </mxCell>
        <mxCell id="R6hqBm6xqQ9UbIMBV1jL-69" value="Верно" style="text;html=1;align=center;verticalAlign=middle;whiteSpace=wrap;rounded=0;" vertex="1" parent="1">
          <mxGeometry x="490" y="320" width="60" height="30" as="geometry" />
        </mxCell>
        <mxCell id="R6hqBm6xqQ9UbIMBV1jL-70" value="Верно" style="text;html=1;align=center;verticalAlign=middle;whiteSpace=wrap;rounded=0;" vertex="1" parent="1">
          <mxGeometry x="490" y="440" width="60" height="30" as="geometry" />
        </mxCell>
        <mxCell id="R6hqBm6xqQ9UbIMBV1jL-71" value="Верно" style="text;html=1;align=center;verticalAlign=middle;whiteSpace=wrap;rounded=0;" vertex="1" parent="1">
          <mxGeometry x="490" y="560" width="60" height="30" as="geometry" />
        </mxCell>
        <mxCell id="R6hqBm6xqQ9UbIMBV1jL-72" value="Верно" style="text;html=1;align=center;verticalAlign=middle;whiteSpace=wrap;rounded=0;" vertex="1" parent="1">
          <mxGeometry x="490" y="680" width="60" height="30" as="geometry" />
        </mxCell>
        <mxCell id="R6hqBm6xqQ9UbIMBV1jL-73" value="Верно" style="text;html=1;align=center;verticalAlign=middle;whiteSpace=wrap;rounded=0;" vertex="1" parent="1">
          <mxGeometry x="490" y="800" width="60" height="30" as="geometry" />
        </mxCell>
        <mxCell id="R6hqBm6xqQ9UbIMBV1jL-74" value="Верно" style="text;html=1;align=center;verticalAlign=middle;whiteSpace=wrap;rounded=0;" vertex="1" parent="1">
          <mxGeometry x="490" y="920" width="60" height="30" as="geometry" />
        </mxCell>
      </root>
    </mxGraphModel>
  </diagram>
</mxfile>
